<svg xmlns="http://www.w3.org/2000/svg" width="49" height="48" fill="none" stroke="#b65e1e" stroke-width="3" stroke-linejoin="round" xmlns:v="https://vecta.io/nano"><path d="M43.067 44c.56 0 .84 0 1.054-.109a1 1 0 0 0 .437-.437c.109-.214.109-.494.109-1.054V21.6c0-.56 0-.84-.109-1.054a1 1 0 0 0-.437-.437C43.907 20 43.627 20 43.067 20h-4.8c-.56 0-.84 0-1.054.109a1 1 0 0 0-.437.437c-.109.214-.109.494-.109 1.054v4.8c0 .56 0 .84-.109 1.054a1 1 0 0 1-.437.437c-.214.109-.494.109-1.054.109h-4.8c-.56 0-.84 0-1.054.109a1 1 0 0 0-.437.437c-.109.214-.109.494-.109 1.054v4.8c0 .56 0 .84-.109 1.054a1 1 0 0 1-.437.437c-.214.109-.494.109-1.054.109h-4.8c-.56 0-.84 0-1.054.109a1 1 0 0 0-.437.437c-.109.214-.109.494-.109 1.054v4.8c0 .56 0 .84.109 1.054a1 1 0 0 0 .437.437c.214.109.494.109 1.054.109h20.8zm-22.4-30.4c0-.56 0-.84.109-1.054a1 1 0 0 1 .437-.437c.214-.109.494-.109 1.054-.109h4.8c.56 0 .84 0 1.054.109a1 1 0 0 1 .437.437c.109.214.109.494.109 1.054v4.8c0 .56 0 .84-.109 1.054a1 1 0 0 1-.437.437c-.214.109-.494.109-1.054.109h-4.8c-.56 0-.84 0-1.054-.109a1 1 0 0 1-.437-.437c-.109-.214-.109-.494-.109-1.054v-4.8zm-14 12c0-.56 0-.84.109-1.054a1 1 0 0 1 .437-.437C7.426 24 7.706 24 8.267 24h4.8c.56 0 .84 0 1.054.109a1 1 0 0 1 .437.437c.109.214.109.494.109 1.054v4.8c0 .56 0 .84-.109 1.054a1 1 0 0 1-.437.437c-.214.109-.494.109-1.054.109h-4.8c-.56 0-.84 0-1.054-.109a1 1 0 0 1-.437-.437c-.109-.214-.109-.494-.109-1.054v-4.8zm-2-20c0-.56 0-.84.109-1.054a1 1 0 0 1 .437-.437C5.426 4 5.706 4 6.267 4h4.8c.56 0 .84 0 1.054.109a1 1 0 0 1 .437.437c.109.214.109.494.109 1.054v4.8c0 .56 0 .84-.109 1.054a1 1 0 0 1-.437.437c-.214.109-.494.109-1.054.109h-4.8c-.56 0-.84 0-1.054-.109a1 1 0 0 1-.437-.437c-.109-.214-.109-.494-.109-1.054V5.6z"/></svg>